<svg width="192" height="192" viewBox="0 0 192 192" fill="none" xmlns="http://www.w3.org/2000/svg">
<rect width="192" height="192" fill="white"/>
<rect width="191" height="191" fill="white"/>
<path d="M29.7111 72.1556C29.7111 41.0957 54.8901 15.9167 85.95 15.9167H105.05C136.11 15.9167 161.289 41.0957 161.289 72.1556V117.783C161.289 148.843 136.11 174.022 105.05 174.022H85.95C54.8901 174.022 29.7111 148.843 29.7111 117.783V72.1556Z" fill="white"/>
<path fill-rule="evenodd" clip-rule="evenodd" d="M105.05 23.3444H85.95C58.9924 23.3444 37.1389 45.1979 37.1389 72.1556V117.783C37.1389 144.741 58.9924 166.594 85.95 166.594H105.05C132.008 166.594 153.861 144.741 153.861 117.783V72.1556C153.861 45.1979 132.008 23.3444 105.05 23.3444ZM85.95 15.9167C54.8901 15.9167 29.7111 41.0957 29.7111 72.1556V117.783C29.7111 148.843 54.8901 174.022 85.95 174.022H105.05C136.11 174.022 161.289 148.843 161.289 117.783V72.1556C161.289 41.0957 136.11 15.9167 105.05 15.9167H85.95Z" fill="black"/>
<path d="M74.5035 95.4774C74.5035 100.889 70.1167 105.276 64.7052 105.276C59.2937 105.276 54.9069 100.889 54.9069 95.4774C54.9069 90.0659 59.2937 85.6791 64.7052 85.6791C70.1167 85.6791 74.5035 90.0659 74.5035 95.4774Z" fill="white"/>
<path fill-rule="evenodd" clip-rule="evenodd" d="M64.7052 99.9702C67.1865 99.9702 69.198 97.9587 69.198 95.4774C69.198 92.9961 67.1865 90.9846 64.7052 90.9846C62.2239 90.9846 60.2124 92.9961 60.2124 95.4774C60.2124 97.9587 62.2239 99.9702 64.7052 99.9702ZM64.7052 105.276C70.1167 105.276 74.5035 100.889 74.5035 95.4774C74.5035 90.0659 70.1167 85.6791 64.7052 85.6791C59.2937 85.6791 54.9069 90.0659 54.9069 95.4774C54.9069 100.889 59.2937 105.276 64.7052 105.276Z" fill="black"/>
<path d="M136.093 95.4774C136.093 100.889 131.706 105.276 126.295 105.276C120.883 105.276 116.496 100.889 116.496 95.4774C116.496 90.0659 120.883 85.6791 126.295 85.6791C131.706 85.6791 136.093 90.0659 136.093 95.4774Z" fill="white"/>
<path fill-rule="evenodd" clip-rule="evenodd" d="M126.295 99.9702C128.776 99.9702 130.788 97.9587 130.788 95.4774C130.788 92.9961 128.776 90.9846 126.295 90.9846C123.814 90.9846 121.802 92.9961 121.802 95.4774C121.802 97.9587 123.814 99.9702 126.295 99.9702ZM126.295 105.276C131.706 105.276 136.093 100.889 136.093 95.4774C136.093 90.0659 131.706 85.6791 126.295 85.6791C120.883 85.6791 116.496 90.0659 116.496 95.4774C116.496 100.889 120.883 105.276 126.295 105.276Z" fill="black"/>
<path d="M95.5 150.678C107.221 150.678 116.722 141.176 116.722 129.456H74.2778C74.2778 141.176 83.7793 150.678 95.5 150.678Z" fill="white"/>
<path fill-rule="evenodd" clip-rule="evenodd" d="M95.5 145.372C102.43 145.372 108.326 140.943 110.511 134.761H80.489C82.674 140.943 88.5698 145.372 95.5 145.372ZM74.9464 134.761C74.5099 133.065 74.2778 131.288 74.2778 129.456H116.722C116.722 131.288 116.49 133.065 116.054 134.761C113.698 143.914 105.389 150.678 95.5 150.678C85.6113 150.678 77.3023 143.914 74.9464 134.761Z" fill="black"/>
</svg>
